<?xml version="1.0" standalone="no"?>
<!DOCTYPE svg PUBLIC "-//W3C//DTD SVG 20010904//EN"
 "http://www.w3.org/TR/2001/REC-SVG-20010904/DTD/svg10.dtd">
<svg version="1.0" xmlns="http://www.w3.org/2000/svg"
 width="411.000000pt" height="411.000000pt" viewBox="0 0 411.000000 411.000000"
 preserveAspectRatio="xMidYMid meet">
<metadata>
Created by potrace 1.11, written by Peter Selinger 2001-2013
</metadata>
<g transform="translate(0.000000,411.000000) scale(0.100000,-0.100000)"
fill="#000000" stroke="none">
<path d="M3129 4056 c-2 -2 -29 -7 -59 -10 -95 -11 -134 -24 -155 -50 -12 -15
-28 -26 -36 -26 -8 0 -32 -9 -54 -20 -25 -13 -66 -21 -115 -24 -59 -3 -101
-14 -189 -48 -141 -54 -181 -85 -181 -138 0 -30 6 -43 29 -63 24 -19 86 -42
141 -52 3 0 21 -6 40 -13 19 -6 47 -13 63 -16 81 -14 152 -63 167 -114 14 -51
12 -71 -9 -117 -16 -36 -40 -57 -112 -100 -9 -6 -50 -32 -90 -58 -41 -26 -113
-71 -161 -99 -47 -28 -109 -70 -136 -94 -50 -44 -146 -172 -171 -229 -16 -37
-102 -155 -113 -155 -4 0 -51 -44 -102 -97 -67 -69 -155 -142 -299 -248 -159
-116 -213 -161 -238 -200 -118 -177 -279 -354 -355 -393 -69 -35 -72 -70 -9
-114 25 -18 45 -37 45 -43 0 -15 -137 -131 -193 -165 -23 -13 -64 -48 -92 -78
-27 -30 -70 -68 -95 -85 -45 -30 -123 -96 -210 -177 -25 -22 -82 -70 -126
-106 -45 -35 -84 -71 -88 -79 -3 -8 0 -28 5 -45 16 -45 49 -49 110 -11 61 37
69 38 99 6 39 -42 57 -36 200 65 19 14 48 35 64 48 18 15 37 21 55 18 14 -2
34 -5 44 -5 16 -1 14 -7 -15 -43 -127 -162 -375 -424 -513 -543 -93 -80 -110
-107 -89 -147 23 -44 55 -42 227 15 229 77 456 191 651 328 54 38 155 128 252
224 169 169 183 186 235 280 17 33 35 64 39 68 13 15 44 15 72 1 44 -23 80
-17 111 16 16 17 35 30 42 30 8 0 23 11 33 25 50 63 190 72 246 16 24 -24 30
-39 32 -83 7 -115 33 -181 121 -304 27 -38 57 -90 67 -115 9 -26 46 -90 81
-143 58 -85 65 -101 65 -144 0 -27 7 -57 15 -69 14 -21 14 -24 -5 -43 -11 -11
-28 -20 -37 -21 -10 0 -41 -1 -70 -1 -64 0 -95 -20 -91 -56 3 -26 7 -27 73
-34 39 -3 112 -4 163 -1 118 7 171 -7 223 -58 l39 -38 0 57 c0 102 37 118 142
63 81 -42 105 -41 124 4 34 81 13 140 -51 146 -65 7 -73 40 -17 67 150 76 308
43 414 -86 l27 -32 -5 59 c-5 53 -3 60 15 66 13 4 42 -3 77 -19 60 -28 89 -32
99 -16 8 12 -77 67 -128 82 -44 13 -62 31 -53 54 5 14 16 16 58 11 28 -4 56
-11 62 -17 11 -11 49 -14 59 -4 10 10 -31 57 -71 81 -51 32 -85 29 -170 -13
-122 -61 -179 -41 -265 90 -44 67 -58 99 -167 406 -28 80 -56 155 -62 167 -14
29 -1 111 24 148 31 45 104 100 138 102 36 3 140 53 190 91 121 91 216 209
427 527 88 133 90 137 109 201 9 32 20 64 25 70 5 7 11 34 13 60 1 27 10 74
19 104 22 75 27 102 33 195 3 44 11 91 17 105 13 26 13 70 5 290 -4 92 -11
149 -23 180 -9 25 -18 62 -20 82 -7 75 -81 237 -151 328 -37 50 -139 151 -190
190 -49 38 -121 88 -142 99 -51 27 -187 52 -203 37z m-533 -2878 c45 -39 127
-176 228 -380 108 -217 118 -259 86 -347 -15 -41 -24 -50 -81 -79 -115 -58
-141 -37 -285 237 -21 41 -58 92 -81 114 -35 34 -40 43 -30 55 8 10 12 60 13
149 2 133 2 135 35 191 19 31 45 62 59 69 31 16 25 17 56 -9z"/>
</g>
</svg>
