<?xml version="1.0" standalone="no"?>
<!DOCTYPE svg PUBLIC "-//W3C//DTD SVG 1.1//EN" "http://www.w3.org/Graphics/SVG/1.1/DTD/svg11.dtd" >
<svg xmlns="http://www.w3.org/2000/svg">
<metadata></metadata>
<defs>
<font id="customfutharkmedium" horiz-adv-x="20" >
<font-face units-per-em="2048" ascent="1638" descent="-410" />
<missing-glyph horiz-adv-x="860" />
<glyph horiz-adv-x="2048" />
<glyph horiz-adv-x="2048" />
<glyph unicode="&#xd;" horiz-adv-x="681" />
<glyph unicode=" "  horiz-adv-x="860" />
<glyph unicode="&#x09;" horiz-adv-x="860" />
<glyph unicode="&#xa0;" horiz-adv-x="860" />
<glyph unicode="!" />
<glyph unicode="#" />
<glyph unicode="$" />
<glyph unicode="%" />
<glyph unicode="&#x26;" />
<glyph unicode="'" />
<glyph unicode="(" />
<glyph unicode=")" />
<glyph unicode="*" />
<glyph unicode="+" />
<glyph unicode="," />
<glyph unicode="-" />
<glyph unicode="." />
<glyph unicode="/" />
<glyph unicode="0" />
<glyph unicode="1" />
<glyph unicode="2" />
<glyph unicode="3" />
<glyph unicode="4" />
<glyph unicode="5" />
<glyph unicode="6" />
<glyph unicode="7" />
<glyph unicode="8" />
<glyph unicode="9" />
<glyph unicode=":" />
<glyph unicode=";" />
<glyph unicode="&#x3c;" />
<glyph unicode="=" />
<glyph unicode="&#x3e;" />
<glyph unicode="?" />
<glyph unicode="@" />
<glyph unicode="A" horiz-adv-x="626" d="M22 1176q3 68 19 77q22 14 46.5 14.5t49.5 -14.5q25 -14 246 -235q205 -205 221 -252q2 -6 2 -11q0 -24 -37 -38q-16 -6 -31 -6q-42 0 -75 47q-12 20 -106.5 97t-120.5 110q-33 41 -45.5 33.5t-12.5 -134.5q0 -94 6 -116.5t41 -57.5q45 -49 97 -86q73 -56 73 -98 q0 -13 -8 -25q-15 -26 -47 -26q-15 0 -35 6q-29 10 -55 37q-25 25 -40 25q-18 0 -22 -36v-15q0 -31 5 -95q4 -75 4 -131t-4 -92q-4 -43 -12.5 -53.5t-39.5 -12.5q-9 -1 -17 -1q-46 0 -62 30q-18 35 -27 172q-10 160 -12 557q-2 150 -2 236q0 65 1 94z" />
<glyph unicode="B" horiz-adv-x="538" d="M20 316q-2 43 -2 100q0 115 7 289q5 167 5 282q0 138 -7 201q-1 9 -1 17q0 36 15 55q17 20 42 20q22 0 50 -15q61 -32 209 -159q57 -49 87 -78t52.5 -58.5t25.5 -46t-8.5 -40t-32 -42t-61.5 -48.5q-104 -78 -104 -95q0 -14 35 -50t35 -48q0 -14 75.5 -91t75.5 -110 q0 -29 -15 -48t-38 -19q-14 0 -119.5 -82t-114.5 -82q-10 0 -27.5 -21.5t-34.5 -40t-48 -21.5h-5q-29 0 -59 34q-2 2 -6 4q-14 14 -19.5 39.5t-11.5 153.5zM168 596q-4 -5 -3 -31q0 -32 5 -94q8 -97 24 -115q5 -5 12 -5q18 0 52 32q48 46 48 78t-42 84q-51 62 -78 62 q-11 0 -18 -11zM171 828q3 -22 19 -25h2q18 -1 87 57q73 62 73 78q0 8 -41 45t-83 69q-37 28 -43 27h-1q-8 -12 -12 -141q-2 -50 -2 -79q0 -21 1 -31z" />
<glyph unicode="C" />
<glyph unicode="D" horiz-adv-x="1556" d="M21 1130q2 72 16 76q10 4 22 4q30 0 72 -26q59 -36 148.5 -109.5t121.5 -95.5l156 -111q35 -25 60.5 -42t44 -30.5t34 -17.5t23.5 -9t19.5 -1t13.5 4t15 10.5t15 12.5q68 45 167.5 147t184.5 194.5t111 110.5q41 30 61 30h4q20 -3 54 -52q41 -57 41 -113q0 -74 63 -270 q25 -82 46.5 -271.5t21.5 -339.5q0 -97 -18 -119q-8 -10 -23 -10q-19 0 -51 15q-47 22 -70 22h-2q-16 0 -64 30t-102 32q-45 2 -91 33.5t-77.5 68.5t-60.5 67.5t-41 30.5t-82 61.5t-88 61.5q-23 0 -65 -31.5t-94 -79.5t-81 -69q-90 -59 -241 -192q-77 -68 -136 -68 q-42 0 -75 35q-25 27 -31 92q-8 80 -18 577q-5 202 -5 294q0 30 1 48zM163 916v-8q0 -26 5 -93q8 -137 12 -256q2 -72 5 -115t6.5 -70.5t7.5 -36.5q3 -7 8 -7h2q10 2 33.5 20.5t92 73.5t148.5 115q123 93 123 114t-76 83q-80 65 -94 65q-6 0 -129 68.5t-129 68.5 q-14 0 -15 -22zM897 649q0 -8 102.5 -72.5t116.5 -64.5q6 0 104.5 -68.5t104.5 -68.5q4 0 4 22q0 34 -9 118q-15 140 -43 281.5t-47.5 141.5t-176 -138t-156.5 -151z" />
<glyph unicode="E" horiz-adv-x="968" d="M20 281v22q0 64 7 252q5 129 5 242q0 57 -1 109q-3 158 -7 182q-1 7 -1 16q0 22 6 55q12 25 12 58q0 56 37 56q36 0 106 -52q59 -43 138 -121q139 -135 153 -135q12 0 76.5 77.5t120.5 159.5q31 45 46 55.5t58 10.5q59 0 96 -31q23 -20 31 -58t8 -87.5t4.5 -165 t16.5 -242.5q14 -154 15 -352v-25q0 -173 -13 -188q-17 -19 -53 -19h-5q-40 2 -69 25q-23 20 -28 59t-7 246q-2 240 -16.5 387.5t-36.5 147.5q-12 0 -43 -37t-51 -78q-14 -29 -66 -55q-2 -2 -8 -4q-23 -11 -43 -15q-2 0 -4 -1q-18 1 -54 27q-40 30 -110 99q-86 88 -107 88 h-3q-18 -6 -25 -348q-4 -158 -8 -238.5t-14.5 -133t-25 -68t-40.5 -17.5h-10q-37 0 -62 27q-23 25 -25 70z" />
<glyph unicode="F" horiz-adv-x="749" d="M22 1193q4 58 23 83q14 18 31 18q23 0 59.5 -46t52.5 -95q20 -63 33 -63q12 0 40 34.5t50 79.5q27 55 51 62h6q22 0 52 -26q35 -30 35 -54q0 -33 -41 -94.5t-111 -133.5q-93 -94 -93 -131q0 -14 13 -20q2 -2 4 -2q7 -3 16 -3q27 0 71 32q56 40 116 116l115 148 q20 27 31.5 58.5t13.5 53t11 37t30 19.5h6q23 0 55 -25q36 -29 37 -51q0 -59 -103.5 -211t-181.5 -209q-49 -35 -110.5 -64.5t-86 -29.5t-31.5 -10q-2 -4 -2 -34q0 -61 9 -229q5 -98 5 -163q0 -97 -11 -117q-12 -25 -57 -25q-47 0 -58 15q-8 16 -27.5 250.5t-19.5 326.5 t-9 202q-8 109 -18 176q-7 49 -7 93q0 16 1 32z" />
<glyph unicode="G" />
<glyph unicode="H" horiz-adv-x="886" d="M20 1206l43 4h9q38 0 71 -28q25 -20 32 -44t13 -91q6 -70 15.5 -95.5t42.5 -62.5q45 -51 165.5 -130t170.5 -126q39 -39 61 -39q15 0 19 50q2 23 2 83q0 68 -2 184q-1 63 -1 115q0 205 13 221q17 19 52 19h5q39 -2 68 -25q23 -18 26 -63q6 -47 9 -318q4 -356 4 -496.5 t14 -148.5q14 -9 14 -28q0 -8 -2 -18q-8 -34 -35 -54q-34 -27 -65 -27q-34 0 -64 33q-24 25 -28 47q-3 15 -3 53q0 17 1 39l4 102l-66 62q-66 59 -78 59q-6 0 -42.5 32t-83 70t-72.5 50q-20 10 -48 29.5t-43.5 27.5t-21.5 4q-13 -7 -13 -169v-23q1 -184 15 -271q8 -57 8 -79 v-8q-2 -19 -20 -37q-15 -17 -31 -21q-7 -2 -17 -1q-13 0 -30 3q-53 12 -68 39q-23 45 -28 334q-8 477 -10 577z" />
<glyph unicode="I" horiz-adv-x="204" d="M20 600v69q0 556 31 595q8 10 30 10q6 0 12 -1q32 -3 67 -22q18 -8 21 -96t3 -487v-570l-32 -14q-14 -6 -30 -6q-20 0 -42 10q-37 16 -45 74q-14 72 -15 438z" />
<glyph unicode="J" horiz-adv-x="1148" d="M25 903q14 23 88 80t137 94q47 27 135 83.5t149.5 94t75.5 38.5h4q13 0 32 -7q22 -8 57.5 -26.5t39.5 -20.5q20 -8 21 -41q0 -20 -8 -27.5t-24.5 -10.5t-60.5 -22.5t-96 -54.5q-59 -41 -177.5 -107.5t-149.5 -90.5l-45 -39l88 -53q68 -41 153.5 -108t102.5 -75 q35 -18 55 -59q11 -24 11 -43q0 -14 -7 -26q-14 -27 -51 -21t-147 53q-74 31 -114 60.5t-126 115.5q-96 98 -126 144q-21 31 -21 53q0 9 4 16zM282 164q-3 7 -3 15q0 17 14 40q10 18 20.5 26.5t21.5 12.5t51 20.5t89 40.5q117 55 200 84t114.5 38.5t58.5 33.5l35 31 l-166 170q-96 98 -131 141t-35 66q0 37 10 47q6 6 16 6q24 0 73 -34q69 -48 127.5 -106.5t62.5 -70.5q6 -14 69.5 -65.5t75.5 -51.5q14 0 78.5 -52t64.5 -62q0 -16 -30.5 -47t-46.5 -31t-64 -39q-63 -53 -207.5 -106.5t-212.5 -88.5q-47 -25 -87 -43t-55 -25.5t-28 -17.5 q-12 -8 -22 -8h-5q-12 2 -34 18q-45 35 -54 58z" />
<glyph unicode="K" horiz-adv-x="849" d="M25 694q-3 12 -3 22t3 18q6 16 36 48q33 35 130.5 103.5t181.5 140.5q175 147 241 187q57 35 94 35q6 0 11 -1q39 -4 74.5 -37.5t35.5 -62.5q0 -33 -91 -113t-186 -154.5t-99 -86.5q-6 -14 -55.5 -39t-75.5 -54l-31 -36l45 -56q61 -76 136 -128t124 -52q18 0 34.5 -8 t55.5 -38t55 -42q53 -36 63 -100q2 -14 3 -28q0 -49 -29 -95q-19 -32 -68 -32h-4q-52 1 -100 34q-51 35 -69 35q-16 0 -86 75.5t-81.5 75.5t-49 36t-84 83t-70.5 63q-33 20 -82 93t-59 114z" />
<glyph unicode="L" horiz-adv-x="626" d="M20 1126q2 74 27 101q26 25 39 25q12 0 51 -25l68 -45q106 -70 247.5 -196t153.5 -161q2 -6 2 -11q0 -20 -22 -42q-28 -28 -62 -27q-27 0 -105.5 66t-148.5 124q-58 48 -72 48q-3 0 -5 -2v-10q0 -42 7 -251q4 -109 4 -175q0 -87 -7 -96q-4 -4 -4 -39q0 -43 6 -132 q4 -67 4 -109q0 -58 -8 -67q-13 -16 -36 -16q-6 0 -12 1q-32 5 -59 32q-25 27 -28 67q-2 24 -2 107q0 56 1 139q1 43 1 83q0 221 -19 362q-21 160 -21 236v13z" />
<glyph unicode="M" horiz-adv-x="921" d="M20 1141l48 49q49 49 59 49q14 0 80.5 -54.5t114.5 -103.5q57 -61 75 -61q14 0 97.5 75.5t91.5 75.5q10 0 57 48q39 39 65 41h3q26 0 63 -35q16 -16 23.5 -53t13.5 -148q33 -537 51 -559q18 -25 37 -240q2 -19 2 -36q-1 -47 -13 -77q-16 -40 -52 -40q-61 0 -91 184 q-51 315 -71 356q-8 18 -35 41q-43 37 -113.5 78t-89.5 41q-20 0 -121 -92l-100 -92l-2 -160q0 -72 3 -136.5t6 -99t5 -62.5t0 -42t-10 -22q-16 -20 -54 -20h-2q-40 0 -65 22q-20 18 -25 75.5t-10 339.5q-6 393 -22 525zM184 1010q-5 -7 -5 -30q1 -26 7 -70q12 -84 25 -97 q4 -4 10 -4q16 1 44 31q31 33 31 56q0 5 -1 9q-6 18 -31.5 47t-50.5 46.5t-29 11.5zM514 893l35 -27q29 -23 61 -33q16 -5 27 -5t19 4q14 10 14 92t-10 88q-1 1 -3 1q-14 0 -75 -59z" />
<glyph unicode="N" horiz-adv-x="727" d="M26 834q-5 11 -6 20q0 28 41 49q33 18 52.5 13t115.5 -50q23 -12 37 -12q8 0 12 60q2 30 2 62t-2 68q-4 72 -14 103q-7 23 -7 42q1 21 9 37q12 23 40 23q9 0 20 -2q31 -6 48 -16t27.5 -22.5t13.5 -46.5t4 -67.5t3 -105t6 -139.5q6 -76 13.5 -102.5t23.5 -34.5 q33 -20 106.5 -88t80.5 -86.5t31 -40t24 -35.5q0 -16 -36 -46t-57 -30q-16 0 -102 70q-47 38 -66 38q-12 0 -12 -16q0 -14 8 -41q10 -32 11 -89q0 -20 -2 -44l-11 -145q-4 -80 -55 -108q-17 -9 -32 -8q-31 0 -56 38q-17 30 -21 100q-1 20 -1 54q0 89 6 274l4 129l-47 41 q-47 39 -103 68q-89 46 -109 86z" />
<glyph unicode="O" horiz-adv-x="1056" d="M20 154q0 25 31 59.5t125 120.5q154 143 154 158.5t-60 64.5q-131 111 -187 208q-33 57 -33 98q0 29 16 50q25 33 153.5 145.5t141 112.5t82 76t79.5 76q8 0 72.5 -63.5t138.5 -136t98 -87.5q63 -41 143 -123q61 -63 62 -101q0 -12 -6 -21q-12 -18 -35.5 -33t-117.5 -60 q-59 -27 -148.5 -99.5t-89.5 -94.5q0 -12 40 -45t108.5 -84t109.5 -86q57 -53 72 -53q6 0 20.5 -18.5t24.5 -45.5t-2 -53q-16 -37 -53 -57q-27 -15 -52 -15q-10 0 -20 2q-47 8 -204 141.5t-173 176.5q-8 25 -21 18q-18 -6 -154 -129t-136 -133q0 -14 -39 -47t-58 -33 q-27 0 -54.5 39t-27.5 72zM240 846q0 -10 12 -18.5t58 -40t102 -78.5l92 -76l49 39q27 20 75 61t85 72t63 43q41 23 41 33q0 6 -24.5 26.5t-75.5 63.5t-99 90q-67 69 -81 69q-10 0 -54.5 -55t-50.5 -55q-14 0 -103 -81t-89 -93z" />
<glyph unicode="P" horiz-adv-x="747" d="M23 750q-2 124 -2 213q0 208 10 227q8 14 20 18t45 -2q45 -6 89 -27.5t57 -21.5q14 0 45 -41q37 -50 69 -49h8q36 6 119 82q100 90 107 90h1q11 0 52 -36q43 -38 43 -48q0 -14 -118.5 -137t-145.5 -137q-13 -7 -32 -7q-28 0 -68 16q-68 28 -91 68q-29 47 -38 48 q-19 -10 -19 -175q0 -73 4 -177q12 -338 21 -359q6 -12 11 -11t20.5 11t29.5 21.5t42 20.5t58 9q51 -2 118 -17.5t87 -33.5q18 -14 64 -25q61 -12 89 -72q10 -23 10 -41q0 -29 -28 -44q-20 -10 -58 2t-77 45q-20 14 -100 30q-46 9 -68 9q-7 -1 -11 -1q-20 -4 -73 -38 q-74 -49 -102 -78q-19 -17 -41 -17q-43 0 -96 68q-31 41 -37 88q-8 66 -14 529z" />
<glyph unicode="Q" horiz-adv-x="1333" d="M22 742q3 24 9 32t25.5 32.5t37 39t53.5 47.5l226 192q98 86 111.5 86.5t70.5 61.5q43 47 78 59q12 4 25 4q24 0 49 -14q18 -10 87.5 -75.5t134 -126t72.5 -60.5q10 0 154 -143q86 -84 122 -136.5t36 -70t-13.5 -41t-13.5 -43.5q0 -18 -56 -73.5t-75 -55.5 q-8 0 -34.5 -20.5t-88 -71t-121.5 -93.5q-106 -78 -106 -104q0 -25 -36 -53.5t-67 -28.5q-72 2 -161.5 60.5t-156.5 127t-122 126t-69 57.5q-18 0 -78 92q-31 45 -44.5 66.5t-27.5 52t-19 40.5q-4 7 -4 18q0 7 2 16zM236 705l77 -78q80 -78 80 -88q0 -6 52.5 -43t111.5 -77 t70 -52q12 -16 27 -17q3 -1 5 -1q13 0 27 7q16 9 35.5 23t39 30.5t44 33t47.5 24.5q39 16 119 79.5t88 84.5q1 3 1 8q0 19 -22 57q-26 47 -55 66q-16 12 -113.5 129.5t-128.5 140.5q-33 27 -52 27t-49 -20.5t-110 -92.5q-35 -33 -91 -71.5t-124 -98.5z" />
<glyph unicode="R" horiz-adv-x="552" d="M22 152q-1 5 -1 13q0 21 6 62q8 58 8 331v118q-2 379 -12 457q-2 20 -2 34.5t2 22.5q4 16 24 29q25 18 53 18q8 0 17 -2q25 -6 100.5 -53t140.5 -103q45 -37 88 -45t67 -44q13 -20 13 -37q0 -13 -8 -25q-10 -16 -71.5 -54t-114.5 -75t-51 -60q0 -12 50 -57t111 -88 q37 -27 50.5 -48.5t19.5 -49t16 -45.5q5 -9 5 -18q0 -17 -15 -33q-24 -26 -69 -33q-29 -6 -42.5 2t-41.5 49q-74 104 -136 143q-20 14 -24 4q-6 -27 -14.5 -134t-8.5 -169q0 -7 1 -14q1 -69 -19 -113q-20 -49 -55 -49t-64 29q-19 19 -23 37zM171 922q3 -54 13 -60q1 -1 4 -1 q16 0 72 50l62 60l-60 51q-57 51 -76 51h-1q-9 0 -13 -48q-2 -29 -2 -58q0 -22 1 -45z" />
<glyph unicode="S" horiz-adv-x="659" d="M23 115v9q0 27 10 43q12 19 73 66l328 254l-39 39q-37 41 -53 41q-10 0 -30.5 17.5t-61.5 53.5t-86 67q-108 75 -132 115q-10 17 -10 37q0 29 19 65q20 41 135 96q72 35 165 98.5t152.5 107.5t67.5 44q16 0 47 -33t31 -49q0 -20 -47 -60.5t-120 -94.5t-97 -77 q-51 -45 -70.5 -45t-36.5 -18q-10 -12 14.5 -44t112.5 -118q141 -141 178 -172q46 -41 46 -76v-7q-5 -38 -31.5 -62.5t-44.5 -24.5q-25 0 -99 -61q-238 -199 -296 -241q-47 -34 -73 -34q-6 0 -12 2q-20 6 -29 19.5t-11 42.5z" />
<glyph unicode="T" horiz-adv-x="757" d="M20 823q0 25 41 101l84 157q43 84 73 122t46.5 44t48.5 6q51 0 110.5 -44t192.5 -183q90 -96 111 -138q9 -18 9 -33q0 -21 -17 -38q-16 -16 -34 -16q-13 -1 -27 7q-34 18 -105 95q-96 102 -104 103q-6 0 -7.5 -210t-4.5 -433.5t-15 -247.5q-17 -31 -54 -31h-4 q-40 2 -65 37q-16 25 -17 72v8q0 53 11 221q10 196 11 230v9q0 30 -6 68q-7 43 -7 109q-2 70 -10.5 93t-28 5t-51.5 -82q-43 -84 -59.5 -103.5t-45.5 -19.5q-25 0 -50.5 31t-25.5 61z" />
<glyph unicode="U" horiz-adv-x="776" d="M25 1042q-5 111 -5 170.5t5 67.5q8 13 43 13h14q47 -3 98 -23q47 -18 158 -112.5t143 -115.5q41 -27 99.5 -68.5t97.5 -68.5q49 -31 61.5 -54.5t-4.5 -53.5q-12 -24 -12 -160q0 -43 1 -97q5 -226 24 -329q8 -51 8 -71v-8q-2 -18 -19 -30q-16 -13 -53 -13q-10 0 -20 1 q-52 4 -74 23q-16 14 -25.5 110t-15.5 348q-2 68 -3 99.5t-3 69.5t-6.5 53.5t-8.5 32t-15 23.5t-21.5 13t-30.5 15q-33 14 -164 122q-69 59 -89 59q-9 0 -9 -11q0 -10 8 -31q10 -31 14 -78q4 -68 13.5 -348.5t11.5 -378.5q0 -98 -5 -116.5t-32 -26.5q-15 -5 -28 -5 q-7 0 -13 1q-18 4 -53 26q-33 23 -40 30t-9 26q-2 20 2 57q1 10 1 22q0 36 -10 97q-8 80 -14 188t-11 271t-9 261z" />
<glyph unicode="V" horiz-adv-x="573" d="M22 1159q3 18 23 45q23 27 38 32q8 3 27 3q15 0 35 -2q51 -4 77 -22.5t114 -110.5q119 -125 145 -125q27 0 49.5 -35t22.5 -74q0 -33 -27 -59q-29 -29 -225 -188l-94 -78l10 -117q8 -78 8 -140q0 -36 -3 -68q-7 -85 -15 -118.5t-14 -40.5q-13 -16 -38 -16q-5 0 -13 1 q-36 5 -66 32l-37 31l2 190q2 173 2 310q0 377 -16 487q-6 33 -6 51q0 7 1 12zM197 901q0 -105 13 -123q4 -6 12 -6q18 0 54 25q37 27 62 34q17 6 17 24q0 34 -66 110l-66 73q-5 6 -9 6q-9 0 -13 -28q-4 -33 -4 -115z" />
<glyph unicode="W" horiz-adv-x="636" d="M21 762q0 455 10 465q14 13 34 13q27 0 63 -24q64 -42 159.5 -136.5t128.5 -118.5q49 -39 49 -58q0 -12 -24.5 -30.5t-83 -66.5t-115.5 -108l-95 -98l5 -88q2 -53 9 -97t7 -64.5t-10 -129.5q-10 -102 -17.5 -122.5t-31.5 -24.5q-7 -1 -13 -1q-32 -1 -46 17q-16 20 -19 92 q-10 125 -10 580zM141 926q0 -88 17 -95q2 -1 5 -1q17 0 53 33q42 38 42 59q0 24 -45 67q-43 41 -57 41q-2 0 -4 -1q-10 -9 -11 -103zM291 244q4 47 10 55q7 9 7 95q0 42 -2 104q-1 33 -1 62q0 129 19 147q20 22 35 22q2 -1 4 -1q16 -4 88 -44q68 -41 116.5 -93t48.5 -87 q0 -18 -25.5 -49t-56 -62t-57 -80t-26.5 -100q-2 -86 -41 -129q-22 -24 -46 -24q-20 0 -42 16q-20 14 -28 68q-5 35 -4 67q0 17 1 33z" />
<glyph unicode="X" horiz-adv-x="1069" d="M22 170q3 12 33 43q45 45 45 82t56 82q78 61 178 233l39 66l-35 65q-33 66 -154 183q-111 108 -134 148q-11 19 -11 39t12 38q28 43 71 43q23 0 50 -12q39 -16 77 -53t152 -169l117 -133l35 45q12 18 66.5 93.5t136.5 173.5q68 78 90 96q16 13 36 13q6 0 13 -1 q47 -12 69.5 -28.5t36.5 -55.5l21 -47l-66 -72q-188 -201 -239 -305l-37 -75l131 -130q238 -238 238 -364q0 -70 -105 -70q-31 0 -43 8.5t-24 38.5q-14 35 -46 68t-53 66q-23 37 -93.5 113.5t-109.5 103.5q-16 14 -30.5 5t-61.5 -61q-67 -73 -67 -90q0 -12 -42 -48t-50 -58 q-8 -27 -88 -107t-99 -80q-35 0 -64.5 18.5t-41.5 51.5q-10 25 -10 37q0 4 1 6z" />
<glyph unicode="Y" horiz-adv-x="1140" d="M20 463q0 43 21.5 62.5t51.5 15.5t58.5 -16.5t47.5 -26.5q53 -41 75 -41q18 0 92 -49q67 -43 84 -43h3q10 3 10 110v38q-2 144 -17 204q-29 119 -37 184.5t-10 177.5q-1 36 -1 65q0 49 2 74q4 40 18 54q14 16 43 16q43 0 121 -37q72 -35 180 -129t186 -145 q59 -39 115.5 -95.5t56.5 -78.5q0 -12 -28 -39q-18 -16 -31.5 -17.5t-46.5 11.5q-51 18 -90 47l-78 61q-31 25 -90.5 46.5t-91.5 54.5q-41 39 -50 39q-2 0 -2 -17.5t1 -48.5t3 -68l29 -405q20 -270 43 -305t12 -49q-10 -16 -58 -36t-81 -20q-27 0 -93.5 42t-131.5 102 q-33 31 -113 67q-82 37 -142.5 94.5t-60.5 100.5z" />
<glyph unicode="Z" horiz-adv-x="1083" d="M20 1108q0 31 35 60.5t70 29.5q27 0 55.5 -38t40.5 -89q6 -27 80 -100.5t94 -73.5q8 0 29.5 -14.5t42 -25.5t25.5 -7q8 10 8 79v29q-2 96 -15 168q-7 41 -7 67q0 30 9 40q16 20 44 20q7 -1 13 -1q36 -6 66 -35q27 -27 33 -54.5t8 -136.5q2 -150 17 -164q8 -8 45 24 t74.5 79t52.5 77q10 23 20 37.5t15.5 19.5t8.5 15t3 29q1 37 27 53q16 9 35 9q13 0 28 -4q37 -11 63 -46q18 -29 20 -44q0 -3 1 -7q0 -16 -8 -45q-10 -35 -42 -77t-57.5 -70.5t-25.5 -37.5q0 -14 -125 -131l-125 -114l4 -131q2 -72 6 -140.5t8 -106.5t5 -72t-2 -52t-13 -29 q-24 -26 -55 -26h-3q-34 2 -65 32q-25 25 -33 76q-6 41 -6 126v46v18q0 108 -22 196q-24 96 -56 96q-10 0 -141 87t-158 111q-31 27 -30.5 50.5t-22.5 41.5q-23 20 -48.5 72.5t-25.5 83.5z" />
<glyph unicode="[" />
<glyph unicode="\" />
<glyph unicode="]" />
<glyph unicode="a" />
<glyph unicode="b" />
<glyph unicode="c" />
<glyph unicode="d" />
<glyph unicode="e" />
<glyph unicode="f" />
<glyph unicode="g" />
<glyph unicode="h" />
<glyph unicode="i" />
<glyph unicode="j" />
<glyph unicode="k" />
<glyph unicode="l" />
<glyph unicode="m" />
<glyph unicode="n" />
<glyph unicode="o" />
<glyph unicode="p" />
<glyph unicode="q" />
<glyph unicode="r" />
<glyph unicode="s" />
<glyph unicode="t" />
<glyph unicode="u" />
<glyph unicode="v" />
<glyph unicode="w" />
<glyph unicode="x" />
<glyph unicode="y" />
<glyph unicode="z" />
<glyph unicode="{" />
<glyph unicode="|" />
<glyph unicode="}" />
<glyph unicode="~" />
<glyph unicode="&#xa2;" />
<glyph unicode="&#xa3;" />
<glyph unicode="&#xa7;" />
<glyph unicode="&#xab;" />
<glyph unicode="&#xbb;" />
<glyph unicode="&#xbf;" />
<glyph unicode="&#xc0;" />
<glyph unicode="&#xc1;" />
<glyph unicode="&#xc2;" />
<glyph unicode="&#xc4;" />
<glyph unicode="&#xc7;" />
<glyph unicode="&#xc8;" />
<glyph unicode="&#xc9;" />
<glyph unicode="&#xca;" />
<glyph unicode="&#xcb;" />
<glyph unicode="&#xce;" />
<glyph unicode="&#xcf;" />
<glyph unicode="&#xd1;" />
<glyph unicode="&#xd3;" />
<glyph unicode="&#xd4;" />
<glyph unicode="&#xd6;" />
<glyph unicode="&#xd9;" />
<glyph unicode="&#xda;" />
<glyph unicode="&#xdb;" />
<glyph unicode="&#xdc;" />
<glyph unicode="&#xdf;" />
<glyph unicode="&#xe0;" />
<glyph unicode="&#xe1;" />
<glyph unicode="&#xe2;" />
<glyph unicode="&#xe4;" />
<glyph unicode="&#xe7;" />
<glyph unicode="&#xe8;" />
<glyph unicode="&#xe9;" />
<glyph unicode="&#xea;" />
<glyph unicode="&#xeb;" />
<glyph unicode="&#xee;" />
<glyph unicode="&#xef;" />
<glyph unicode="&#xf3;" />
<glyph unicode="&#xf4;" />
<glyph unicode="&#xf6;" />
<glyph unicode="&#xf9;" />
<glyph unicode="&#xfa;" />
<glyph unicode="&#xfb;" />
<glyph unicode="&#xfc;" />
<glyph unicode="&#x201c;" />
<glyph unicode="&#x201e;" />
<glyph unicode="&#x2022;" />
<glyph unicode="&#x20ac;" />
<glyph unicode="&#xe000;" horiz-adv-x="1024" d="M0 0z" />
</font>
</defs>
</svg>
