<svg version="1" xmlns="http://www.w3.org/2000/svg" width="548" height="548" viewBox="0 0 411.000000 411.000000"><path d="M312.9 5.4c-.2.2-2.9.7-5.9 1-9.5 1.1-13.4 2.4-15.5 5-1.2 1.5-2.8 2.6-3.6 2.6-.8 0-3.2.9-5.4 2-2.5 1.3-6.6 2.1-11.5 2.4-5.9.3-10.1 1.4-18.9 4.8C238 28.6 234 31.7 234 37c0 3 .6 4.3 2.9 6.3 2.4 1.9 8.6 4.2 14.1 5.2.3 0 2.1.6 4 1.3 1.9.6 4.7 1.3 6.3 1.6 8.1 1.4 15.2 6.3 16.7 11.4 1.4 5.1 1.2 7.1-.9 11.7-1.6 3.6-4 5.7-11.2 10-.9.6-5 3.2-9 5.8-4.1 2.6-11.3 7.1-16.1 9.9-4.7 2.8-10.9 7-13.6 9.4-5 4.4-14.6 17.2-17.1 22.9-1.6 3.7-10.2 15.5-11.3 15.5-.4 0-5.1 4.4-10.2 9.7-6.7 6.9-15.5 14.2-29.9 24.8-15.9 11.6-21.3 16.1-23.8 20-11.8 17.7-27.9 35.4-35.5 39.3-6.9 3.5-7.2 7-.9 11.4 2.5 1.8 4.5 3.7 4.5 4.3 0 1.5-13.7 13.1-19.3 16.5-2.3 1.3-6.4 4.8-9.2 7.8-2.7 3-7 6.8-9.5 8.5-4.5 3-12.3 9.6-21 17.7-2.5 2.2-8.2 7-12.6 10.6-4.5 3.5-8.4 7.1-8.8 7.9-.3.8 0 2.8.5 4.5 1.6 4.5 4.9 4.9 11 1.1 6.1-3.7 6.9-3.8 9.9-.6 3.9 4.2 5.7 3.6 20-6.5 1.9-1.4 4.8-3.5 6.4-4.8 1.8-1.5 3.7-2.1 5.5-1.8 1.4.2 3.4.5 4.4.5 1.6.1 1.4.7-1.5 4.3-12.7 16.2-37.5 42.4-51.3 54.3-9.3 8-11 10.7-8.9 14.7 2.3 4.4 5.5 4.2 22.7-1.5 22.9-7.7 45.6-19.1 65.1-32.8 5.4-3.8 15.5-12.8 25.2-22.4 16.9-16.9 18.3-18.6 23.5-28 1.7-3.3 3.5-6.4 3.9-6.8 1.3-1.5 4.4-1.5 7.2-.1 4.4 2.3 8 1.7 11.1-1.6 1.6-1.7 3.5-3 4.2-3 .8 0 2.3-1.1 3.3-2.5 5-6.3 19-7.2 24.6-1.6 2.4 2.4 3 3.9 3.2 8.3.7 11.5 3.3 18.1 12.1 30.4 2.7 3.8 5.7 9 6.7 11.5.9 2.6 4.6 9 8.1 14.3 5.8 8.5 6.5 10.1 6.5 14.4 0 2.7.7 5.7 1.5 6.9 1.4 2.1 1.4 2.4-.5 4.3-1.1 1.1-2.8 2-3.7 2.1-1 0-4.1.1-7 .1-6.4 0-9.5 2-9.1 5.6.3 2.6.7 2.7 7.3 3.4 3.9.3 11.2.4 16.3.1 11.8-.7 17.1.7 22.3 5.8l3.9 3.8v-5.7c0-10.2 3.7-11.8 14.2-6.3 8.1 4.2 10.5 4.1 12.4-.4 3.4-8.1 1.3-14-5.1-14.6-6.5-.7-7.3-4-1.7-6.7 15-7.6 30.8-4.3 41.4 8.6l2.7 3.2-.5-5.9c-.5-5.3-.3-6 1.5-6.6 1.3-.4 4.2.3 7.7 1.9 6 2.8 8.9 3.2 9.9 1.6.8-1.2-7.7-6.7-12.8-8.2-4.4-1.3-6.2-3.1-5.3-5.4.5-1.4 1.6-1.6 5.8-1.1 2.8.4 5.6 1.1 6.2 1.7 1.1 1.1 4.9 1.4 5.9.4 1-1-3.1-5.7-7.1-8.1-5.1-3.2-8.5-2.9-17 1.3-12.2 6.1-17.9 4.1-26.5-9-4.4-6.7-5.8-9.9-16.7-40.6-2.8-8-5.6-15.5-6.2-16.7-1.4-2.9-.1-11.1 2.4-14.8 3.1-4.5 10.4-10 13.8-10.2 3.6-.3 14-5.3 19-9.1 12.1-9.1 21.6-20.9 42.7-52.7 8.8-13.3 9-13.7 10.9-20.1.9-3.2 2-6.4 2.5-7 .5-.7 1.1-3.4 1.3-6 .1-2.7 1-7.4 1.9-10.4 2.2-7.5 2.7-10.2 3.3-19.5.3-4.4 1.1-9.1 1.7-10.5 1.3-2.6 1.3-7 .5-29-.4-9.2-1.1-14.9-2.3-18-.9-2.5-1.8-6.2-2-8.2-.7-7.5-8.1-23.7-15.1-32.8-3.7-5-13.9-15.1-19-19-4.9-3.8-12.1-8.8-14.2-9.9-5.1-2.7-18.7-5.2-20.3-3.7zm-53.3 287.8c4.5 3.9 12.7 17.6 22.8 38 10.8 21.7 11.8 25.9 8.6 34.7-1.5 4.1-2.4 5-8.1 7.9-11.5 5.8-14.1 3.7-28.5-23.7-2.1-4.1-5.8-9.2-8.1-11.4-3.5-3.4-4-4.3-3-5.5.8-1 1.2-6 1.3-14.9.2-13.3.2-13.5 3.5-19.1 1.9-3.1 4.5-6.2 5.9-6.9 3.1-1.6 2.5-1.7 5.6.9z"/></svg>